<?xml version="1.0" encoding="UTF-8"?>
<svg xmlns="http://www.w3.org/2000/svg" xmlns:xlink="http://www.w3.org/1999/xlink" width="3000" height="3000" viewBox="0 0 3000 3000">
<path fill-rule="evenodd" fill="rgb(70.896912%, 91.796875%, 84.375%)" fill-opacity="1" d="M 1500 0 C 2328.421875 0 3000 671.578125 3000 1500 C 3000 2328.421875 2328.421875 2999.996094 1500 2999.996094 C 671.578125 2999.996094 0.00390625 2328.421875 0.00390625 1500 C 0.00390625 671.578125 671.578125 0 1500 0 "/>
<path fill-rule="evenodd" fill="rgb(0%, 0%, 0%)" fill-opacity="1" d="M 1715.421875 2459.855469 L 1284.578125 2459.855469 C 1232.230469 2459.855469 1189.660156 2417.265625 1189.660156 2364.933594 L 1189.660156 2021.390625 C 1189.660156 2008.972656 1199.738281 1998.890625 1212.148438 1998.890625 L 1787.851562 1998.890625 C 1800.269531 1998.890625 1810.351562 2008.984375 1810.351562 2021.390625 L 1810.351562 2364.933594 C 1810.359375 2417.265625 1767.761719 2459.855469 1715.421875 2459.855469 Z M 1234.648438 2043.886719 L 1234.648438 2364.933594 C 1234.648438 2392.460938 1257.050781 2414.84375 1284.578125 2414.84375 L 1715.410156 2414.84375 C 1742.949219 2414.84375 1765.339844 2392.441406 1765.339844 2364.933594 L 1765.339844 2043.886719 L 1234.648438 2043.886719 "/>
<path fill-rule="evenodd" fill="rgb(0%, 0%, 0%)" fill-opacity="1" d="M 1571.011719 2459.855469 C 1558.589844 2459.855469 1548.511719 2449.765625 1548.511719 2437.359375 L 1548.511719 2021.390625 C 1548.511719 1991.769531 1593.5 1991.78125 1593.5 2021.390625 L 1593.5 2437.359375 C 1593.519531 2449.765625 1583.429688 2459.855469 1571.011719 2459.855469 "/>
<path fill-rule="evenodd" fill="rgb(0%, 0%, 0%)" fill-opacity="1" d="M 1391.578125 2385.582031 C 1324.519531 2385.582031 1288.398438 2307.242188 1330.480469 2256.144531 C 1349.210938 2233.402344 1383.96875 2261.980469 1365.210938 2284.765625 C 1347.011719 2306.859375 1362.730469 2340.582031 1391.589844 2340.582031 C 1420.449219 2340.582031 1436.179688 2306.90625 1417.980469 2284.746094 C 1399.269531 2261.953125 1433.941406 2233.390625 1452.730469 2256.15625 C 1494.761719 2307.113281 1458.730469 2385.582031 1391.578125 2385.582031 "/>
<path fill-rule="evenodd" fill="rgb(0%, 0%, 0%)" fill-opacity="1" d="M 1391.578125 2313.628906 C 1287.421875 2313.628906 1287.441406 2155.351562 1391.578125 2155.351562 C 1495.710938 2155.351562 1495.738281 2313.628906 1391.578125 2313.628906 Z M 1391.578125 2200.347656 C 1346.648438 2200.347656 1346.601562 2268.632812 1391.578125 2268.632812 C 1436.550781 2268.632812 1436.519531 2200.347656 1391.578125 2200.347656 "/>
<path fill-rule="evenodd" fill="rgb(0%, 0%, 0%)" fill-opacity="1" d="M 1662.121094 2459.855469 C 1649.699219 2459.855469 1639.621094 2449.765625 1639.621094 2437.359375 L 1639.621094 2021.390625 C 1639.621094 1991.769531 1684.609375 1991.78125 1684.609375 2021.390625 L 1684.609375 2437.359375 C 1684.628906 2449.765625 1674.539062 2459.855469 1662.121094 2459.855469 "/>
<path fill-rule="evenodd" fill="rgb(0%, 0%, 0%)" fill-opacity="1" d="M 1806.089844 2043.886719 L 1193.898438 2043.886719 C 1122.980469 2043.886719 1065.28125 1986.191406 1065.28125 1915.261719 L 1065.28125 925.460938 C 1065.28125 854.53125 1122.980469 796.839844 1193.898438 796.839844 L 1284.660156 796.828125 C 1297.070312 796.828125 1307.148438 806.910156 1307.148438 819.328125 L 1307.148438 938.308594 L 1692.828125 938.308594 L 1692.828125 819.328125 C 1692.828125 806.910156 1702.921875 796.828125 1715.328125 796.828125 L 1806.089844 796.828125 C 1877.019531 796.828125 1934.71875 854.53125 1934.71875 925.449219 L 1934.71875 1915.261719 C 1934.730469 1986.191406 1877.019531 2043.886719 1806.089844 2043.886719 Z M 1193.898438 841.820312 C 1147.78125 841.820312 1110.269531 879.339844 1110.269531 925.449219 L 1110.269531 1915.261719 C 1110.269531 1961.359375 1147.789062 1998.890625 1193.898438 1998.890625 L 1806.089844 1998.890625 C 1852.199219 1998.890625 1889.71875 1961.378906 1889.71875 1915.261719 L 1889.71875 925.460938 C 1889.71875 879.339844 1852.210938 841.828125 1806.089844 841.828125 L 1737.839844 841.820312 L 1737.839844 960.808594 C 1737.839844 973.230469 1727.75 983.308594 1715.339844 983.308594 L 1284.660156 983.308594 C 1272.238281 983.308594 1262.160156 973.230469 1262.160156 960.808594 L 1262.160156 841.820312 L 1193.898438 841.820312 "/>
<path fill-rule="evenodd" fill="rgb(0%, 0%, 0%)" fill-opacity="1" d="M 1823.839844 1395.511719 L 1176.160156 1395.511719 C 1163.738281 1395.511719 1153.660156 1385.429688 1153.660156 1373.011719 L 1153.660156 1090 C 1153.660156 1077.578125 1163.738281 1067.5 1176.160156 1067.5 L 1823.839844 1067.5 C 1836.261719 1067.5 1846.339844 1077.578125 1846.339844 1090 L 1846.339844 1373 C 1846.339844 1385.441406 1836.261719 1395.511719 1823.839844 1395.511719 Z M 1198.660156 1350.519531 L 1801.351562 1350.519531 L 1801.351562 1112.488281 L 1198.660156 1112.488281 L 1198.660156 1350.519531 "/>
<path fill-rule="evenodd" fill="rgb(0%, 0%, 0%)" fill-opacity="1" d="M 1298.5 1548.941406 L 1169.300781 1548.941406 C 1139.691406 1548.941406 1139.679688 1503.949219 1169.300781 1503.949219 L 1298.5 1503.949219 C 1328.109375 1503.949219 1328.121094 1548.941406 1298.5 1548.941406 "/>
<path fill-rule="evenodd" fill="rgb(0%, 0%, 0%)" fill-opacity="1" d="M 1564.601562 1548.941406 L 1435.378906 1548.941406 C 1405.769531 1548.941406 1405.769531 1503.949219 1435.378906 1503.949219 L 1564.601562 1503.949219 C 1594.210938 1503.949219 1594.230469 1548.941406 1564.601562 1548.941406 "/>
<path fill-rule="evenodd" fill="rgb(0%, 0%, 0%)" fill-opacity="1" d="M 1830.691406 1548.941406 L 1701.488281 1548.941406 C 1671.878906 1548.941406 1671.878906 1503.949219 1701.488281 1503.949219 L 1830.691406 1503.949219 C 1860.289062 1503.949219 1860.320312 1548.941406 1830.691406 1548.941406 "/>
<path fill-rule="evenodd" fill="rgb(0%, 0%, 0%)" fill-opacity="1" d="M 1298.5 1662.769531 L 1169.300781 1662.769531 C 1139.691406 1662.769531 1139.691406 1617.78125 1169.300781 1617.78125 L 1298.5 1617.78125 C 1328.109375 1617.78125 1328.109375 1662.769531 1298.5 1662.769531 "/>
<path fill-rule="evenodd" fill="rgb(0%, 0%, 0%)" fill-opacity="1" d="M 1564.601562 1662.769531 L 1435.378906 1662.769531 C 1405.769531 1662.769531 1405.769531 1617.78125 1435.378906 1617.78125 L 1564.601562 1617.78125 C 1594.210938 1617.78125 1594.210938 1662.769531 1564.601562 1662.769531 "/>
<path fill-rule="evenodd" fill="rgb(0%, 0%, 0%)" fill-opacity="1" d="M 1830.691406 1662.769531 L 1701.488281 1662.769531 C 1671.871094 1662.769531 1671.878906 1617.78125 1701.488281 1617.78125 L 1830.691406 1617.78125 C 1860.300781 1617.78125 1860.300781 1662.769531 1830.691406 1662.769531 "/>
<path fill-rule="evenodd" fill="rgb(0%, 0%, 0%)" fill-opacity="1" d="M 1298.5 1776.628906 L 1169.300781 1776.628906 C 1139.691406 1776.628906 1139.691406 1731.640625 1169.300781 1731.640625 L 1298.5 1731.640625 C 1328.109375 1731.640625 1328.109375 1776.628906 1298.5 1776.628906 "/>
<path fill-rule="evenodd" fill="rgb(0%, 0%, 0%)" fill-opacity="1" d="M 1564.601562 1776.628906 L 1435.378906 1776.628906 C 1405.769531 1776.628906 1405.769531 1731.640625 1435.378906 1731.640625 L 1564.601562 1731.640625 C 1594.210938 1731.640625 1594.210938 1776.628906 1564.601562 1776.628906 "/>
<path fill-rule="evenodd" fill="rgb(0%, 0%, 0%)" fill-opacity="1" d="M 1830.691406 1776.628906 L 1701.488281 1776.628906 C 1671.871094 1776.628906 1671.878906 1731.640625 1701.488281 1731.640625 L 1830.691406 1731.640625 C 1860.300781 1731.640625 1860.300781 1776.628906 1830.691406 1776.628906 "/>
<path fill-rule="evenodd" fill="rgb(0%, 0%, 0%)" fill-opacity="1" d="M 1298.5 1890.449219 L 1169.300781 1890.449219 C 1139.691406 1890.449219 1139.691406 1845.460938 1169.300781 1845.460938 L 1298.5 1845.460938 C 1328.109375 1845.460938 1328.109375 1890.449219 1298.5 1890.449219 "/>
<path fill-rule="evenodd" fill="rgb(0%, 0%, 0%)" fill-opacity="1" d="M 1564.601562 1890.449219 L 1435.378906 1890.449219 C 1405.769531 1890.449219 1405.769531 1845.460938 1435.378906 1845.460938 L 1564.601562 1845.460938 C 1594.210938 1845.460938 1594.210938 1890.449219 1564.601562 1890.449219 "/>
<path fill-rule="evenodd" fill="rgb(0%, 0%, 0%)" fill-opacity="1" d="M 1830.691406 1890.449219 L 1701.488281 1890.449219 C 1671.871094 1890.449219 1671.878906 1845.460938 1701.488281 1845.460938 L 1830.691406 1845.460938 C 1860.300781 1845.460938 1860.300781 1890.449219 1830.691406 1890.449219 "/>
<path fill-rule="evenodd" fill="rgb(0%, 0%, 0%)" fill-opacity="1" d="M 1786.859375 983.308594 L 1213.148438 983.308594 C 1183.53125 983.308594 1183.53125 938.308594 1213.148438 938.308594 L 1786.859375 938.308594 C 1816.480469 938.308594 1816.480469 983.308594 1786.859375 983.308594 "/>
<path fill-rule="evenodd" fill="rgb(0%, 0%, 0%)" fill-opacity="1" d="M 1715.339844 983.308594 L 1284.660156 983.308594 C 1272.238281 983.308594 1262.160156 973.230469 1262.160156 960.808594 L 1262.160156 617.308594 C 1262.160156 600.011719 1306.070312 566.789062 1328.371094 546.140625 C 1350.300781 525.828125 1371.921875 559.988281 1394.5 584.289062 C 1450.300781 524.25 1439.160156 524.671875 1500 585.511719 C 1560.699219 524.808594 1549.511719 524.019531 1605.410156 584.289062 C 1663.488281 521.96875 1646.570312 523 1730.609375 600.828125 C 1735.199219 605.078125 1737.828125 611.070312 1737.828125 617.328125 L 1737.828125 960.828125 C 1737.839844 973.230469 1727.761719 983.308594 1715.339844 983.308594 Z M 1307.148438 938.308594 L 1692.828125 938.308594 L 1692.828125 627.128906 L 1657.488281 594.371094 C 1600.53125 655.511719 1610.191406 655.601562 1554.058594 595.050781 C 1494.011719 655.101562 1505.988281 655.089844 1445.921875 595.019531 C 1389.589844 655.640625 1398.851562 655.019531 1342.488281 594.398438 L 1307.171875 627.140625 L 1307.171875 938.308594 L 1307.148438 938.308594 "/>
<path fill-rule="evenodd" fill="rgb(91.40625%, 94.53125%, 100%)" fill-opacity="1" d="M 1307.148438 938.308594 L 1692.828125 938.308594 L 1692.828125 627.128906 L 1657.488281 594.371094 C 1600.519531 655.511719 1610.191406 655.601562 1554.058594 595.050781 C 1494.011719 655.101562 1505.980469 655.089844 1445.921875 595.019531 C 1389.601562 655.640625 1398.851562 655.019531 1342.488281 594.398438 L 1307.171875 627.140625 L 1307.148438 938.308594 "/>
<path fill-rule="evenodd" fill="rgb(55.271912%, 60.351562%, 53.709412%)" fill-opacity="1" d="M 1715.339844 983.308594 L 1213.148438 983.308594 C 1183.53125 983.308594 1183.53125 938.308594 1213.148438 938.308594 L 1262.160156 938.308594 L 1262.160156 841.820312 L 1193.898438 841.820312 C 1147.78125 841.820312 1110.269531 879.339844 1110.269531 925.449219 L 1110.269531 1915.261719 C 1110.269531 1961.359375 1147.789062 1998.890625 1193.898438 1998.890625 L 1806.101562 1998.890625 C 1852.199219 1998.890625 1889.71875 1961.378906 1889.71875 1915.269531 L 1889.71875 925.460938 C 1889.71875 879.339844 1852.210938 841.828125 1806.101562 841.828125 L 1737.839844 841.820312 L 1737.828125 938.308594 L 1786.871094 938.308594 C 1816.480469 938.308594 1816.480469 983.308594 1786.871094 983.308594 Z M 1176.160156 1067.5 L 1823.839844 1067.5 C 1836.261719 1067.5 1846.339844 1077.578125 1846.339844 1090 L 1846.339844 1373 C 1846.339844 1385.441406 1836.261719 1395.511719 1823.839844 1395.511719 L 1176.160156 1395.511719 C 1163.738281 1395.511719 1153.660156 1385.429688 1153.660156 1373.011719 L 1153.660156 1090 C 1153.660156 1077.578125 1163.738281 1067.5 1176.160156 1067.5 Z M 1701.488281 1503.949219 L 1830.691406 1503.949219 C 1860.300781 1503.949219 1860.320312 1548.941406 1830.691406 1548.941406 L 1701.488281 1548.941406 C 1671.878906 1548.941406 1671.878906 1503.949219 1701.488281 1503.949219 Z M 1701.488281 1617.769531 L 1830.691406 1617.769531 C 1860.300781 1617.769531 1860.300781 1662.769531 1830.691406 1662.769531 L 1701.488281 1662.769531 C 1671.871094 1662.769531 1671.878906 1617.769531 1701.488281 1617.769531 Z M 1701.488281 1731.628906 L 1830.691406 1731.628906 C 1860.300781 1731.628906 1860.300781 1776.628906 1830.691406 1776.628906 L 1701.488281 1776.628906 C 1671.871094 1776.628906 1671.878906 1731.628906 1701.488281 1731.628906 Z M 1701.488281 1845.460938 L 1830.691406 1845.460938 C 1860.300781 1845.460938 1860.300781 1890.449219 1830.691406 1890.449219 L 1701.488281 1890.449219 C 1671.871094 1890.449219 1671.878906 1845.460938 1701.488281 1845.460938 Z M 1435.378906 1503.949219 L 1564.601562 1503.949219 C 1594.210938 1503.949219 1594.230469 1548.941406 1564.601562 1548.941406 L 1435.378906 1548.941406 C 1405.769531 1548.941406 1405.769531 1503.949219 1435.378906 1503.949219 Z M 1435.378906 1617.769531 L 1564.601562 1617.769531 C 1594.210938 1617.769531 1594.210938 1662.769531 1564.601562 1662.769531 L 1435.378906 1662.769531 C 1405.769531 1662.769531 1405.769531 1617.769531 1435.378906 1617.769531 Z M 1435.378906 1731.628906 L 1564.601562 1731.628906 C 1594.210938 1731.628906 1594.210938 1776.628906 1564.601562 1776.628906 L 1435.378906 1776.628906 C 1405.769531 1776.628906 1405.769531 1731.628906 1435.378906 1731.628906 Z M 1435.378906 1845.460938 L 1564.601562 1845.460938 C 1594.210938 1845.460938 1594.210938 1890.449219 1564.601562 1890.449219 L 1435.378906 1890.449219 C 1405.769531 1890.449219 1405.769531 1845.460938 1435.378906 1845.460938 Z M 1298.5 1731.628906 C 1328.109375 1731.628906 1328.109375 1776.628906 1298.5 1776.628906 L 1169.300781 1776.628906 C 1139.691406 1776.628906 1139.691406 1731.628906 1169.300781 1731.628906 Z M 1169.300781 1845.460938 L 1298.5 1845.460938 C 1328.109375 1845.460938 1328.109375 1890.449219 1298.5 1890.449219 L 1169.300781 1890.449219 C 1139.691406 1890.449219 1139.691406 1845.460938 1169.300781 1845.460938 Z M 1169.300781 1617.769531 L 1298.5 1617.769531 C 1328.109375 1617.769531 1328.109375 1662.769531 1298.5 1662.769531 L 1169.300781 1662.769531 C 1139.691406 1662.769531 1139.691406 1617.769531 1169.300781 1617.769531 Z M 1169.300781 1503.949219 L 1298.5 1503.949219 C 1328.109375 1503.949219 1328.121094 1548.941406 1298.5 1548.941406 L 1169.300781 1548.941406 C 1139.691406 1548.941406 1139.679688 1503.949219 1169.300781 1503.949219 "/>
<path fill-rule="evenodd" fill="rgb(53.709412%, 82.8125%, 89.84375%)" fill-opacity="1" d="M 1801.351562 1112.488281 L 1198.660156 1112.488281 L 1198.660156 1350.519531 L 1801.351562 1350.519531 L 1801.351562 1112.488281 "/>
<path fill-rule="evenodd" fill="rgb(98.4375%, 88.671875%, 0.389099%)" fill-opacity="1" d="M 1391.578125 2268.636719 C 1436.550781 2268.636719 1436.519531 2200.347656 1391.578125 2200.347656 C 1346.648438 2200.347656 1346.609375 2268.636719 1391.578125 2268.636719 "/>
<path fill-rule="evenodd" fill="rgb(66.601562%, 85.546875%, 56.443787%)" fill-opacity="1" d="M 1391.578125 2155.351562 C 1459.878906 2155.351562 1483.390625 2223.429688 1462.101562 2270.289062 C 1488.128906 2320.414062 1452.769531 2385.582031 1391.578125 2385.582031 C 1330.480469 2385.582031 1295.058594 2320.546875 1321.078125 2270.339844 C 1299.75 2223.480469 1323.261719 2155.351562 1391.578125 2155.351562 Z M 1284.578125 2414.84375 L 1548.511719 2414.84375 L 1548.511719 2043.882812 L 1234.648438 2043.882812 L 1234.648438 2364.933594 C 1234.648438 2392.460938 1257.050781 2414.84375 1284.578125 2414.84375 "/>
<path fill-rule="evenodd" fill="rgb(29.026794%, 32.151794%, 32.93457%)" fill-opacity="1" d="M 1593.5 2043.882812 L 1593.5 2414.84375 L 1639.621094 2414.84375 L 1639.621094 2043.882812 L 1593.5 2043.882812 "/>
<path fill-rule="evenodd" fill="rgb(66.601562%, 85.546875%, 56.443787%)" fill-opacity="1" d="M 1684.609375 2043.882812 L 1684.609375 2414.84375 L 1715.410156 2414.84375 C 1742.949219 2414.84375 1765.339844 2392.441406 1765.339844 2364.933594 L 1765.339844 2043.882812 L 1684.609375 2043.882812 "/>
<path fill-rule="evenodd" fill="rgb(100%, 65.429688%, 14.501953%)" fill-opacity="1" d="M 1391.601562 2340.582031 C 1411.699219 2340.582031 1425.441406 2324.234375 1425.761719 2306.824219 C 1405.238281 2315.914062 1377.960938 2315.929688 1357.429688 2306.835938 C 1357.769531 2324.230469 1371.488281 2340.582031 1391.601562 2340.582031 "/>
</svg>
