<svg width="1734" height="515" viewBox="0 0 1734 515" fill="none" xmlns="http://www.w3.org/2000/svg">
<path d="M33.6526 383.022C27.4042 389.27 27.4042 399.401 33.6526 405.649L135.476 507.473C141.724 513.721 151.855 513.721 158.103 507.473C164.352 501.224 164.352 491.094 158.103 484.845L67.5937 394.336L158.103 303.826C164.352 297.578 164.352 287.447 158.103 281.198C151.855 274.95 141.724 274.95 135.476 281.198L33.6526 383.022ZM1689.01 394.336V378.336L44.9663 378.336V394.336V410.336L1689.01 410.336V394.336Z" fill="#B9BFC7"/>
<path d="M1700.31 132.283C1706.56 126.034 1706.56 115.904 1700.31 109.655L1598.49 7.83192C1592.24 1.58353 1582.11 1.58353 1575.86 7.83192C1569.62 14.0803 1569.62 24.2109 1575.86 30.4593L1666.37 120.969L1575.86 211.479C1569.62 217.727 1569.62 227.858 1575.86 234.106C1582.11 240.354 1592.24 240.354 1598.49 234.106L1700.31 132.283ZM44.9833 120.969V136.969H1689V120.969V104.969H44.9833V120.969Z" fill="#B9BFC7"/>
</svg>
